<svg xmlns="http://www.w3.org/2000/svg" xmlns:xlink="http://www.w3.org/1999/xlink" width="126" height="15" viewBox="0 0 126 15">
    <defs>
        <path id="prefix__a" d="M0.733 0.218L10.58 0.218 10.58 12 0.733 12z"/>
        <path id="prefix__c" d="M0.601 0.217L10.01 0.217 10.01 12 0.601 12z"/>
        <path id="prefix__e" d="M0 14.081L125.206 14.081 125.206 0 0 0z"/>
    </defs>
    <g fill="none" fill-rule="evenodd">
        <path fill="#EF476F" d="M18.533 6.186c-.245 0-.485.024-.714.068-.184-3.362-2.974-6.035-6.38-6.035-2.646 0-4.917 1.614-5.88 3.907 1.014 3.669 4.38 6.37 8.367 6.37.481 0 .872.39.872.873 0 .482-.39.873-.872.873-4.87 0-8.97-3.357-10.11-7.877C1.632 4.849 0 6.795 0 9.123c0 2.692 2.182 4.87 4.875 4.87h12.35v-.001c0-3.937-3.204-7.14-7.14-7.14-.483 0-.873-.391-.873-.873s.39-.873.873-.873c4.891 0 8.871 3.974 8.884 8.862 1.95-.217 3.468-1.867 3.468-3.878 0-2.155-1.75-3.904-3.904-3.904"/>
        <g transform="translate(81 2.081)">
            <mask id="prefix__b" fill="#fff">
                <use xlink:href="#prefix__a"/>
            </mask>
            <path fill="#2E3943" d="M9.334 8.752c0-1.532-1.128-2.205-3.198-2.205H1.979v4.427h4.157c2.07 0 3.198-.674 3.198-2.222zM1.979 1.245V5.52h3.753c1.885 0 2.98-.724 2.98-2.138 0-1.413-1.095-2.137-2.98-2.137H1.979zm8.601 7.608C10.58 10.856 9.099 12 6.153 12H.733V.218h5.083c2.626 0 4.14 1.11 4.14 3.03 0 1.346-.723 2.238-1.8 2.676 1.515.337 2.424 1.329 2.424 2.929z" mask="url(#prefix__b)"/>
        </g>
        <g transform="translate(92 2.081)">
            <mask id="prefix__d" fill="#fff">
                <use xlink:href="#prefix__c"/>
            </mask>
            <path fill="#2E3943" d="M8.58 4.257c0-1.885-1.246-2.962-3.603-2.962h-3.13v5.907h3.13c2.357 0 3.603-1.093 3.603-2.945zM8.646 12L5.953 8.213c-.303.033-.605.05-.942.05H1.847V12H.601V.217h4.41c2.996 0 4.814 1.515 4.814 4.04 0 1.852-.976 3.147-2.693 3.703L10.01 12H8.646z" mask="url(#prefix__d)"/>
        </g>
        <mask id="prefix__f" fill="#fff">
            <use xlink:href="#prefix__e"/>
        </mask>
        <path fill="#2E3943" d="M103.01 14.081L104.256 14.081 104.256 2.299 103.01 2.299zM105.402 8.16c0-3.375 2.567-5.86 6.041-5.86 1.68 0 3.192.559 4.214 1.679l-.775.773c-.937-.954-2.089-1.366-3.406-1.366-2.782 0-4.872 2.04-4.872 4.774 0 2.732 2.09 4.773 4.872 4.773 1.317 0 2.47-.412 3.406-1.382l.775.773c-1.022 1.119-2.535 1.695-4.23 1.695-3.458 0-6.025-2.485-6.025-5.86M116.63 12.521l.478-.938c.822.807 2.288 1.4 3.802 1.4 2.156 0 3.094-.906 3.094-2.042 0-3.16-7.094-1.218-7.094-5.482 0-1.695 1.317-3.16 4.247-3.16 1.3 0 2.65.38 3.572 1.021l-.412.971c-.988-.642-2.14-.955-3.16-.955-2.107 0-3.046.938-3.046 2.091 0 3.16 7.095 1.251 7.095 5.448 0 1.695-1.35 3.144-4.296 3.144-1.728 0-3.424-.609-4.28-1.498M40.694 2.332v3.082c-.278-.02-.492-.042-.749-.042-1.84 0-3.062 1.005-3.062 3.21v5.437h-3.338V2.3h3.19v1.724c.813-1.113 2.182-1.69 3.96-1.69M49.484 10.268v-1.16h-2.259c-1.54 0-2.025.57-2.025 1.33 0 .822.696 1.371 1.856 1.371 1.098 0 2.048-.507 2.428-1.54m3.293-2.893v6.643h-3.082v-1.577c-.612 1.034-1.794 1.583-3.462 1.583-2.659 0-4.242-1.478-4.242-3.44 0-2.005 1.414-3.399 4.876-3.399h2.617c0-1.414-.845-2.237-2.617-2.237-1.203 0-2.448.401-3.272 1.056l-1.18-2.3c1.244-.888 3.08-1.373 4.895-1.373 3.461 0 5.467 1.604 5.467 5.044M63.408 8.17c0-1.968-1.27-3.153-2.9-3.153-1.652 0-2.92 1.185-2.92 3.154 0 1.968 1.268 3.154 2.92 3.154 1.63 0 2.9-1.186 2.9-3.154zM66.646 0v14.02h-3.153v-1.468c-.826.995-2.032 1.483-3.557 1.483-3.217 0-5.695-2.287-5.695-5.864 0-3.578 2.478-5.864 5.695-5.864 1.397 0 2.582.445 3.41 1.376V0h3.3zM71.39 7.174h5.578c-.231-1.431-1.306-2.357-2.78-2.357-1.493 0-2.567.904-2.798 2.357m8.608 1.916h-8.566c.316 1.41 1.516 2.273 3.24 2.273 1.2 0 2.065-.358 2.843-1.094l1.747 1.894c-1.053 1.199-2.631 1.83-4.672 1.83-3.916 0-6.463-2.462-6.463-5.83 0-3.388 2.589-5.83 6.04-5.83 3.327 0 5.895 2.23 5.895 5.872 0 .253-.042.61-.064.885M32.13 13.303c-.673.484-1.663.716-2.674.716-2.674 0-4.232-1.367-4.232-4.063v-5.13h-1.747V2.3h1.747V.018h3.285v2.281h2.82v2.528h-2.82v5.087c0 .969.526 1.495 1.41 1.495.485 0 .97-.148 1.327-.42l.885 2.314z" mask="url(#prefix__f)"/>
    </g>
</svg>
